# Blender 5.1.2
# www.blender.org
mtllib doom.mtl
o rock_GEO
v 0.066948 -0.083799 -0.001808
v -0.039305 -0.083799 0.032715
v -0.039305 -0.083799 0.144436
v 0.066948 -0.083799 0.178960
v 0.132616 -0.083799 0.088576
v 0.066948 -0.022041 -0.001808
v -0.039305 -0.022041 0.032715
v -0.039305 -0.022041 0.144436
v 0.066948 -0.022041 0.178960
v 0.132616 -0.022041 0.088576
v 0.055731 0.027922 0.032715
v -0.009937 0.027922 0.054052
v -0.009937 0.027922 0.123100
v 0.055731 0.027922 0.144436
v 0.096316 0.027922 0.088576
v 0.037581 0.047007 0.088576
vn -0.3090 -0.0000 -0.9511
vn -1.0000 -0.0000 -0.0000
vn -0.3090 -0.0000 0.9511
vn 0.8090 -0.0000 0.5878
vn 0.8090 -0.0000 -0.5878
vn -0.2664 0.5067 -0.8199
vn -0.8621 0.5067 -0.0000
vn -0.2664 0.5067 0.8199
vn 0.6975 0.5067 0.5067
vn 0.6975 0.5067 -0.5067
vn -0.1152 0.9280 -0.3544
vn -0.3727 0.9280 -0.0000
vn -0.1152 0.9280 0.3544
vn 0.3015 0.9280 0.2191
vn 0.3015 0.9280 -0.2191
vt 0.658929 1.121841
vt -0.074136 0.888090
vt 0.114951 0.743030
vt 0.579392 0.897178
vt -0.078358 0.118677
vt 0.118040 0.253678
vt 0.652098 -0.123107
vt 0.584385 0.105408
vt 1.107761 0.496889
vt 0.869525 0.503101
vt 0.277288 0.621172
vt 0.513671 0.705135
vt 0.284090 0.370419
vt 0.524682 0.299394
vt 0.666563 0.506270
vt 0.453258 0.500479
s 1
usemtl Rock_MAT
f 1/1/1 2/2/1 7/3/1 6/4/1
f 2/2/2 3/5/2 8/6/2 7/3/2
f 3/5/3 4/7/3 9/8/3 8/6/3
f 4/7/4 5/9/4 10/10/4 9/8/4
f 5/9/5 1/1/5 6/4/5 10/10/5
f 6/4/6 7/3/6 12/11/6 11/12/6
f 7/3/7 8/6/7 13/13/7 12/11/7
f 8/6/8 9/8/8 14/14/8 13/13/8
f 9/8/9 10/10/9 15/15/9 14/14/9
f 10/10/10 6/4/10 11/12/10 15/15/10
f 11/12/11 12/11/11 16/16/11
f 12/11/12 13/13/12 16/16/12
f 13/13/13 14/14/13 16/16/13
f 14/14/14 15/15/14 16/16/14
f 15/15/15 11/12/15 16/16/15
o Blade_GEO
v 0.163010 0.227922 0.083255
v 0.150970 0.247115 0.064798
v 0.150606 0.241710 0.060671
v 0.130440 0.171326 0.160252
v 0.111640 0.178774 0.157774
v 0.111277 0.173368 0.153647
v 0.098146 0.152938 0.187182
v 0.118524 0.160891 0.174969
vn 0.2106 0.7430 0.6353
vn 0.1805 0.7253 0.6643
vn 0.2035 0.7306 0.6518
vn -0.9450 0.2362 -0.2261
vn 0.1053 -0.8220 -0.5597
vn 0.0982 -0.8341 -0.5429
vn 0.0750 -0.8428 -0.5330
vn 0.9054 0.2174 -0.3646
vn 0.1653 0.7159 0.6784
vn 0.1340 0.7132 0.6880
vn 0.0597 -0.8526 -0.5192
vn 0.0282 -0.8585 -0.5120
vt 0.486742 0.336441
vt 0.440052 0.385143
vt 0.440052 0.101763
vt 0.486742 0.101763
vt 0.474032 0.053139
vt 0.440052 0.005841
s 1
usemtl Doom_MAT
f 17/17/16 18/18/16 21/19/17 20/20/18
f 18/18/19 19/18/19 22/19/19 21/19/19
f 19/18/20 17/17/20 20/20/21 22/19/22
f 17/17/23 19/18/23 18/18/23
f 24/21/24 21/19/17 23/22/25
f 21/19/19 22/19/19 23/22/19
f 22/19/22 20/20/21 24/21/26
f 22/19/22 24/21/26 23/22/27
f 20/20/18 21/19/17 24/21/24
o thing_GEO
v 0.049576 0.305085 -0.025852
v 0.058962 0.305085 -0.016465
v 0.040190 0.305085 -0.016465
v 0.049576 0.305085 -0.007079
v 0.056354 0.332268 -0.016465
v 0.049576 0.332268 -0.023243
v 0.042799 0.332268 -0.016465
v 0.049576 0.332268 -0.009688
v 0.049576 0.296804 -0.016465
v 0.049576 0.337510 -0.016465
v 0.056354 0.311014 -0.016465
v 0.049576 0.311014 -0.023243
v 0.042799 0.311014 -0.016465
v 0.049576 0.311014 -0.009688
vn -0.0000 0.4812 -0.8766
vn 0.8766 0.4812 -0.0000
vn 0.9777 0.2101 -0.0000
vn -0.0000 0.2101 -0.9777
vn -0.8766 0.4812 -0.0000
vn -0.9777 0.2101 -0.0000
vn -0.0000 0.2101 0.9777
vn -0.0000 0.4812 0.8766
vn -0.0000 -0.2585 -0.9660
vn 0.9660 -0.2585 -0.0000
vn -0.0000 -1.0000 -0.0000
vn -0.0000 -0.2585 0.9660
vn -0.9660 -0.2585 -0.0000
vn -0.0000 1.0000 -0.0000
vt 0.006722 0.196622
vt 0.068589 0.196622
vt 0.068589 0.377532
vt 0.006722 0.377532
vt 0.068589 0.196622
vt 0.006722 0.196622
vt 0.006722 0.377532
vt 0.068589 0.377532
vt 0.130456 0.377532
vt 0.130456 0.196622
vt 0.006767 0.427997
vt 0.068589 0.427997
vt 0.037655 0.456757
vt 0.130411 0.427997
vt 0.099523 0.456757
vt 0.068589 0.427997
vt 0.099522 0.456757
vt 0.006767 0.427997
vt 0.037655 0.456757
vt 0.036001 0.152006
vt 0.100064 0.152006
vt 0.098981 0.152006
vt 0.038197 0.152006
s 1
usemtl Doom_MAT
f 30/23/28 29/24/29 35/25/30 36/26/31
f 31/27/32 30/28/28 36/29/31 37/30/33
f 37/30/33 38/31/34 32/32/35 31/27/32
f 38/31/34 35/25/30 29/24/29 32/32/35
f 25/33/36 26/34/37 33/35/38
f 26/34/37 28/36/39 33/37/38
f 28/36/39 27/38/40 33/39/38
f 27/38/40 25/40/36 33/41/38
f 30/28/28 31/27/32 34/42/41
f 31/27/32 32/32/35 34/43/41
f 32/32/35 29/24/29 34/44/41
f 29/24/29 30/23/28 34/45/41
f 36/26/31 35/25/30 26/34/37 25/33/36
f 37/30/33 36/29/31 25/40/36 27/38/40
f 27/38/40 28/36/39 38/31/34 37/30/33
f 26/34/37 35/25/30 38/31/34 28/36/39
o arms_GEO
v -0.135795 0.243877 0.128582
v -0.160436 0.224800 0.108162
v -0.119382 0.213484 0.127641
v -0.142822 0.197923 0.109905
v -0.139423 0.242589 0.063774
v -0.110819 0.262184 0.085901
v -0.091664 0.226712 0.084803
v -0.119020 0.208552 0.064104
v -0.063421 0.295378 0.001735
v -0.042264 0.282892 0.017956
v -0.089779 0.234827 0.069876
v -0.068461 0.312545 0.025816
v -0.104288 0.267090 0.072524
v -0.092136 0.299423 -0.004096
v -0.126625 0.247044 0.053604
v -0.065715 0.264047 -0.016754
v -0.109711 0.209310 0.041401
v -0.113139 0.251279 0.080628
v -0.124579 0.257726 0.039621
v -0.075973 0.241567 0.061166
v -0.090864 0.279843 0.051814
v -0.109996 0.269440 0.027531
v -0.088286 0.239394 0.015662
v -0.069539 0.255994 0.045460
v -0.079543 0.301283 0.042362
v -0.104574 0.286037 0.009467
v -0.076537 0.248059 -0.004338
v -0.051678 0.268509 0.032849
v -0.101258 0.219991 0.030365
v 0.086242 0.227440 0.090796
v 0.120439 0.241883 0.108292
v 0.109526 0.203187 0.082813
v 0.133527 0.215500 0.102269
v 0.129304 0.272820 0.073439
v 0.099241 0.257826 0.049707
v 0.126415 0.229522 0.040391
v 0.154425 0.243892 0.063096
v 0.053526 0.292215 0.010049
v 0.058148 0.266607 -0.003717
v 0.130757 0.243601 0.032255
v 0.045452 0.275407 0.033549
v 0.110215 0.250536 0.060354
v 0.061668 0.312200 0.030279
v 0.133232 0.277127 0.057584
v 0.078332 0.306985 -0.012205
v 0.159133 0.266316 0.034255
v 0.129550 0.247007 0.063125
v 0.121058 0.288425 0.054975
v 0.117679 0.243942 0.021845
v 0.089064 0.262297 0.046713
v 0.101972 0.292139 0.044115
v 0.116234 0.289042 0.008032
v 0.099155 0.255117 0.016539
v 0.063447 0.266117 0.044192
v 0.081544 0.306007 0.039466
v 0.099539 0.300761 -0.006006
v 0.077804 0.257656 0.003408
v 0.141827 0.281718 0.015262
vn -0.4858 -0.2643 0.8331
vn -0.8004 0.3238 -0.5045
vn -0.9142 0.2086 -0.3474
vn 0.0984 0.8854 0.4543
vn 0.3649 0.9220 -0.1292
vn 0.8364 -0.3260 0.4406
vn 0.9377 -0.2464 0.2450
vn -0.1423 -0.9407 -0.3081
vn -0.0836 -0.8775 -0.4723
vn 0.4812 0.6109 -0.6287
vn 0.3210 0.9469 -0.0150
vn 0.9557 0.2493 -0.1563
vn -0.1032 0.6698 0.7354
vn 0.8200 -0.3065 0.4834
vn -0.2743 0.6579 -0.7013
vn -0.9186 0.2715 -0.2872
vn 0.4033 -0.0056 -0.9150
vn -0.0042 -0.8046 -0.5938
vn -0.1029 -0.9028 -0.4177
vn -0.8696 0.2730 -0.4114
vn 0.8955 -0.2971 0.3314
vn 0.0540 -0.7378 -0.6728
vn -0.0588 -0.8574 -0.5113
vn 0.0622 -0.7261 -0.6848
vn 0.8622 -0.2458 0.4429
vn -0.1198 0.6435 0.7560
vn -0.8822 0.3343 -0.3315
vn -0.0366 0.7581 0.6512
vn 0.4916 0.7995 -0.3452
vn -0.8944 0.3164 -0.3161
vn 0.8495 -0.2635 0.4570
vn -0.4582 -0.2736 0.8457
vn -0.3038 -0.3527 0.8850
vn 0.0926 0.8666 0.4904
vn -0.5883 0.5417 -0.6004
vn -0.9774 0.1441 -0.1549
vn 0.1820 0.7061 0.6843
vn -0.0064 -0.6927 -0.7212
vn -0.0609 -0.8370 -0.5438
vn 0.9965 -0.0831 -0.0087
vn 0.9180 -0.3470 0.1920
vn -0.8705 0.3352 -0.3604
vn -0.6744 -0.3379 -0.6565
vn -0.9735 -0.0848 0.2124
vn -0.0041 -0.8555 -0.5177
vn -0.3963 -0.5289 0.7505
vn -0.5886 0.7877 0.1819
vn 0.1168 0.7356 0.6673
vn -0.3528 0.5756 -0.7377
vn 0.5896 0.4532 -0.6686
vn 0.9684 0.0880 -0.2333
vn 0.3937 0.8023 0.4487
vn 0.2818 -0.6559 -0.7003
vn 0.8141 0.3065 -0.4932
vn 0.6745 0.4073 -0.6157
vn -0.0774 -0.8419 -0.5341
vn 0.4736 0.5026 -0.7232
vn -0.3575 -0.5408 0.7614
vn 0.0444 0.7550 0.6542
vn -0.5196 -0.4847 0.7037
vn 0.7796 -0.3210 0.5378
vn 0.0612 0.7511 0.6573
vn -0.0600 -0.8450 -0.5314
vn -0.3264 -0.5632 0.7591
vt 0.782779 0.610295
vt 0.719707 0.547140
vt 0.782747 0.547096
vt 0.853160 0.695764
vt 0.853194 0.610295
vt 0.924172 0.610295
vt 0.924163 0.695764
vt 0.987767 0.610295
vt 0.987805 0.695764
vt 0.719710 0.695763
vt 0.719692 0.610294
vt 0.782812 0.695858
vt 0.712948 0.881536
vt 0.651795 0.881804
vt 0.711964 0.927955
vt 0.924155 0.979408
vt 0.924155 0.937311
vt 0.987823 0.937311
vt 0.987824 0.979442
vt 0.859375 1.000584
vt 0.859375 0.919051
vt 0.937500 1.000575
vt 0.853210 0.979460
vt 0.853215 0.937311
vt 0.773438 1.000575
vt 0.782823 0.979461
vt 0.782824 0.937311
vt 0.787865 0.881804
vt 0.719725 0.979442
vt 0.719724 0.937311
vt 0.782825 0.774413
vt 0.853278 0.745942
vt 0.719712 0.745941
vt 0.782825 0.811634
vt 0.782824 0.880404
vt 0.719707 0.821092
vt 0.924155 0.788826
vt 0.987809 0.745942
vt 0.987804 0.821093
vt 0.853298 0.821074
vt 0.924155 0.880170
vt 0.924155 0.729284
vt 0.853298 0.880407
vt 0.719706 0.880459
vt 0.987804 0.880460
vt 0.656622 0.610295
vt 0.656654 0.547096
vt 0.719694 0.547140
vt 0.586241 0.695764
vt 0.515237 0.695764
vt 0.515229 0.610295
vt 0.586207 0.610295
vt 0.451595 0.695764
vt 0.451634 0.610295
vt 0.719691 0.695763
vt 0.656589 0.695858
vt 0.719709 0.610294
vt 0.712948 0.881536
vt 0.651795 0.881804
vt 0.515246 0.979408
vt 0.451576 0.979442
vt 0.451577 0.937311
vt 0.515246 0.937311
vt 0.580749 1.000426
vt 0.500000 1.000417
vt 0.580070 0.914062
vt 0.586190 0.979460
vt 0.586186 0.937311
vt 0.664062 1.000417
vt 0.656577 0.979461
vt 0.656577 0.937311
vt 0.787865 0.881804
vt 0.719676 0.979442
vt 0.719676 0.937311
vt 0.656576 0.774413
vt 0.586123 0.745942
vt 0.719688 0.745941
vt 0.656576 0.811634
vt 0.719694 0.821092
vt 0.656577 0.880404
vt 0.515246 0.788826
vt 0.451596 0.821093
vt 0.451592 0.745942
vt 0.586103 0.821074
vt 0.515246 0.880170
vt 0.515246 0.729284
vt 0.586103 0.880407
vt 0.719695 0.880459
vt 0.451596 0.880460
s 1
usemtl Doom_MAT
f 42/46/42 39/47/42 40/48/42
f 43/49/43 40/50/44 39/51/45 44/52/46
f 44/52/46 39/51/45 41/53/47 45/54/48
f 45/55/48 41/56/47 42/46/49 46/57/50
f 46/57/50 42/46/49 40/50/44 43/49/43
f 47/58/51 50/59/52 48/60/53
f 50/61/52 63/62/54 66/63/55 48/64/53
f 47/65/51 52/66/56 50/67/52
f 52/68/56 64/69/57 63/62/54 50/61/52
f 47/65/51 54/70/58 52/66/56
f 54/71/58 65/72/59 64/69/57 52/68/56
f 47/58/51 48/60/53 54/73/58
f 48/74/53 66/75/55 65/72/59 54/71/58
f 55/76/60 46/57/50 53/77/61
f 49/78/62 46/57/50 55/76/60
f 67/79/63 55/76/60 53/77/61
f 67/79/64 61/80/65 58/81/66
f 51/82/67 49/83/62 58/84/66
f 57/85/68 53/77/61 51/82/67
f 57/85/68 51/82/67 59/86/69
f 59/86/69 51/82/67 58/84/66
f 43/49/43 44/52/46 53/77/61
f 49/83/62 56/87/70 44/52/46
f 46/57/50 49/78/62 45/55/48
f 43/49/43 53/77/61 46/57/50
f 64/69/57 60/88/71 59/86/69 63/62/54
f 65/72/59 61/80/65 60/88/71 64/69/57
f 66/75/55 62/89/72 61/80/65 65/72/59
f 63/62/54 59/86/69 62/90/72 66/63/55
f 53/77/61 56/87/70 51/82/67
f 51/82/67 56/87/70 49/83/62
f 44/52/46 56/87/70 53/77/61
f 45/54/48 49/83/62 44/52/46
f 62/89/72 58/81/66 61/80/65
f 61/80/65 57/85/68 60/88/71
f 60/88/71 57/85/68 59/86/69
f 59/86/69 58/84/66 62/90/72
f 42/46/73 41/56/73 39/47/73
f 57/85/68 61/80/65 67/79/64
f 55/76/60 67/79/63 49/78/62
f 57/85/68 67/79/64 53/77/61
f 67/79/64 58/81/66 49/78/62
f 71/91/74 69/92/74 68/93/74
f 72/94/75 73/95/76 68/96/77 69/97/78
f 73/95/76 74/98/79 70/99/80 68/96/77
f 74/100/79 75/101/81 71/91/82 70/102/80
f 75/101/81 72/94/75 69/97/78 71/91/82
f 76/103/83 77/60/84 79/104/85
f 79/105/85 77/106/84 95/107/86 92/108/87
f 76/109/83 79/110/85 81/111/88
f 81/112/88 79/105/85 92/108/87 93/113/89
f 76/109/83 81/111/88 83/114/90
f 83/115/90 81/112/88 93/113/89 94/116/91
f 76/103/83 83/117/90 77/60/84
f 77/118/84 83/115/90 94/116/91 95/119/86
f 84/120/92 82/121/93 75/101/81
f 78/122/94 84/120/92 75/101/81
f 96/123/95 82/121/93 84/120/92
f 96/123/96 87/124/97 90/125/98
f 80/126/99 87/127/97 78/128/94
f 86/129/100 80/126/99 82/121/93
f 86/129/100 88/130/101 80/126/99
f 88/130/101 87/127/97 80/126/99
f 72/94/75 82/121/93 73/95/76
f 78/128/94 73/95/76 85/131/102
f 75/101/81 74/100/79 78/122/94
f 72/94/75 75/101/81 82/121/93
f 93/113/89 92/108/87 88/130/101 89/132/103
f 94/116/91 93/113/89 89/132/103 90/125/98
f 95/119/86 94/116/91 90/125/98 91/133/104
f 92/108/87 95/107/86 91/134/104 88/130/101
f 82/121/93 80/126/99 85/131/102
f 80/126/99 78/128/94 85/131/102
f 73/95/76 82/121/93 85/131/102
f 74/98/79 73/95/76 78/128/94
f 91/133/104 90/125/98 87/124/97
f 90/125/98 89/132/103 86/129/100
f 89/132/103 88/130/101 86/129/100
f 88/130/101 91/134/104 87/127/97
f 71/91/105 68/93/105 70/102/105
f 86/129/100 96/123/96 90/125/98
f 84/120/92 78/122/94 96/123/95
f 86/129/100 82/121/93 96/123/96
f 96/123/96 78/122/94 87/124/97
o gun_GEO
v 0.082508 0.349362 0.004429
v 0.073643 0.359829 0.010362
v 0.075577 0.338894 0.012538
v 0.066712 0.349362 0.018471
v 0.060825 0.330338 -0.004057
v 0.047415 0.346171 0.004918
v 0.071309 0.346171 -0.016323
v 0.057900 0.362004 -0.007348
v 0.067176 0.358475 0.003088
v 0.076041 0.348008 -0.002846
v 0.069110 0.337541 0.005263
v 0.060245 0.348008 0.011196
v 0.042324 0.326466 -0.024869
v 0.028914 0.342299 -0.015893
v 0.039399 0.358132 -0.028159
v 0.052809 0.342299 -0.037134
v 0.033615 0.340783 -0.034665
vn 0.6581 0.1377 0.7403
vn 0.2181 -0.9446 0.2454
vn -0.6046 0.0269 0.7961
vn 0.2182 -0.9445 0.2454
vn 0.8614 0.0269 -0.5071
vn 0.0387 0.9983 0.0435
vn 0.0387 0.9983 0.0436
vn 0.8614 0.0269 -0.5072
vn -0.0915 0.9905 -0.1029
vn 0.7474 -0.0000 -0.6644
vn 0.0915 -0.9905 0.1029
vn -0.7474 -0.0000 0.6644
vn -0.9790 -0.0706 0.1913
vn -0.2586 -0.9211 -0.2909
vn -0.4158 0.7800 -0.4677
vn 0.3046 -0.0706 -0.9498
vn -0.6581 -0.1377 -0.7403
vt 0.065613 0.064726
vt 0.008430 0.064621
vt 0.008430 0.008677
vt 0.065613 0.008573
vt 0.105954 0.008482
vt 0.105961 0.064827
vt 0.158753 0.064829
vt 0.158760 0.008473
vt 0.158747 0.064830
vt 0.158747 0.120778
vt 0.105968 0.120778
vt 0.105968 0.064830
vt 0.105968 0.008469
vt 0.158747 0.008469
vt 0.065613 0.120778
vt 0.065613 0.008488
vt 0.065613 0.064825
vt 0.269981 0.064834
vt 0.269984 0.008454
vt 0.269977 0.120778
vt 0.269977 0.064830
vt 0.269977 0.008469
vt 0.300960 0.065132
vt 0.300962 0.064806
s 1
usemtl Doom_MAT
f 97/135/106 98/136/106 100/137/106 99/138/106
f 107/139/107 108/140/108 102/141/108 101/142/109
f 103/143/110 104/144/111 105/145/112 106/146/113
f 108/140/108 105/145/112 104/144/111 102/141/108
f 103/143/110 106/146/113 107/147/107 101/148/109
f 106/146/113 105/145/112 98/149/114 97/135/115
f 107/147/107 106/146/113 97/135/115 99/138/116
f 99/150/116 100/151/117 108/140/108 107/139/107
f 98/149/114 105/145/112 108/140/108 100/151/117
f 101/142/109 102/141/108 110/152/118 109/153/119
f 102/141/108 104/144/111 111/154/120 110/152/118
f 104/144/111 103/143/110 112/155/121 111/154/120
f 103/143/110 101/148/109 109/156/119 112/155/121
f 109/153/119 110/152/118 113/157/122
f 110/152/118 111/154/120 113/157/122
f 111/154/120 112/155/121 113/158/122
f 112/155/121 109/156/119 113/158/122
o sides_GEO
v 0.182101 -0.375107 -0.182101
v 0.000000 -0.375107 -0.257530
v -0.182101 -0.375107 -0.182101
v -0.257530 -0.375107 0.000000
v -0.182101 -0.375107 0.182101
v 0.000000 -0.375107 0.257530
v 0.182101 -0.375107 0.182101
v 0.257530 -0.375107 0.000000
v 0.269546 -0.000000 -0.269546
v -0.000000 -0.000000 -0.381196
v -0.269546 -0.000000 -0.269546
v -0.381196 -0.000000 -0.000000
v -0.269546 0.000000 0.269546
v -0.000000 0.000000 0.381196
v 0.269546 0.000000 0.269546
v 0.381196 -0.000000 -0.000000
v 0.000000 -0.307422 0.000000
vn 0.3661 -0.2914 -0.8838
vn -0.3661 -0.2914 -0.8838
vn -0.8838 -0.2914 -0.3661
vn -0.8838 -0.2914 0.3661
vn -0.3661 -0.2914 0.8838
vn 0.3661 -0.2914 0.8838
vn 0.8838 -0.2914 0.3661
vn 0.8838 -0.2914 -0.3661
vn -0.0000 -0.9672 0.2542
vn -0.1797 -0.9672 0.1797
vn -0.0000 -1.0000 -0.0000
vn 0.1797 -0.9672 0.1797
vn 0.2542 -0.9672 -0.0000
vn 0.1797 -0.9672 -0.1797
vn -0.0000 -0.9672 -0.2542
vn -0.1797 -0.9672 -0.1797
vn -0.2542 -0.9672 -0.0000
vt -1.458971 -0.010772
vt -0.969228 -0.010772
vt -0.969228 1.011712
vt -1.458971 1.011712
vt -0.479486 -0.010772
vt -0.479486 1.011712
vt 0.010257 -0.010772
vt 0.010257 1.011712
vt 0.500000 -0.010772
vt 0.500000 1.011712
vt 0.989743 -0.010772
vt 0.989743 1.011712
vt 1.479486 -0.010772
vt 1.479486 1.011712
vt 1.969228 -0.010772
vt 1.969228 1.011712
vt 2.458971 -0.010772
vt 2.458971 1.011712
vt 0.508612 0.069263
vt 0.541171 0.082749
vt 0.508612 0.113465
vt 0.476054 0.082749
vt 0.462568 0.115307
vt 0.476054 0.147866
vt 0.508612 0.161352
vt 0.541171 0.147866
vt 0.554657 0.115307
s 1
usemtl Side_MAT
f 114/159/123 115/160/123 123/161/123 122/162/123
f 115/160/124 116/163/124 124/164/124 123/161/124
f 116/163/125 117/165/125 125/166/125 124/164/125
f 117/165/126 118/167/126 126/168/126 125/166/126
f 118/167/127 119/169/127 127/170/127 126/168/127
f 119/169/128 120/171/128 128/172/128 127/170/128
f 120/171/129 121/173/129 129/174/129 128/172/129
f 121/173/130 114/175/130 122/176/130 129/174/130
f 115/177/131 114/178/132 130/179/133
f 116/180/134 115/177/131 130/179/133
f 117/181/135 116/180/134 130/179/133
f 118/182/136 117/181/135 130/179/133
f 119/183/137 118/182/136 130/179/133
f 120/184/138 119/183/137 130/179/133
f 121/185/139 120/184/138 130/179/133
f 114/178/132 121/185/139 130/179/133
o shadow_GEO
v -0.123895 0.001000 0.141313
v 0.123895 0.001000 0.141313
v -0.123895 0.001000 -0.106478
v 0.123895 0.001000 -0.106478
vn -0.0000 1.0000 -0.0000
vt 0.000000 0.000000
vt 1.000000 0.000000
vt 1.000000 1.000000
vt 0.000000 1.000000
s 1
usemtl Shadow_MAT
f 131/186/140 132/187/140 134/188/140 133/189/140
o fists_GEO
v 0.113231 0.189854 0.114225
v 0.119929 0.192746 0.097838
v 0.102299 0.193204 0.091164
v 0.084705 0.190596 0.103426
v 0.092408 0.187219 0.125945
v 0.115006 0.232297 0.130946
v 0.122084 0.236494 0.106583
v 0.096890 0.237150 0.097045
v 0.074241 0.233358 0.115513
v 0.089031 0.230265 0.137825
v 0.100886 0.186266 0.103486
v 0.096956 0.238734 0.117474
v 0.117197 0.208130 0.130350
v 0.088332 0.205872 0.137995
v 0.071896 0.209310 0.113200
v 0.089060 0.213732 0.089646
v 0.132757 0.212595 0.106189
v 0.116117 0.215788 0.082854
v -0.154342 0.193269 0.128954
v -0.145498 0.197319 0.113883
v -0.129542 0.197963 0.123910
v -0.128524 0.194310 0.145178
v -0.150938 0.189579 0.152463
v -0.170548 0.234550 0.139787
v -0.155652 0.240430 0.119668
v -0.132849 0.241349 0.133997
v -0.133652 0.236038 0.162972
v -0.160204 0.231705 0.164506
v -0.138179 0.190215 0.132117
v -0.149194 0.241596 0.146350
v -0.170352 0.210508 0.136455
v -0.158857 0.207346 0.163925
v -0.129350 0.212161 0.162220
v -0.121212 0.218355 0.134574
v -0.160762 0.216761 0.109721
v -0.132282 0.221235 0.109046
vn 0.5347 -0.7963 0.2828
vn 0.5429 -0.7385 -0.4000
vn 0.9903 -0.1149 0.0788
vn 0.7827 0.3579 -0.5091
vn 0.5289 0.8300 -0.1769
vn -0.5778 0.0212 -0.8159
vn -0.5842 -0.6994 -0.4117
vn -0.9619 -0.2735 0.0010
vn -0.1929 -0.8722 0.4495
vn 0.5640 -0.3508 0.7475
vn 0.0368 -0.9785 -0.2030
vn -0.1068 -0.6156 -0.7808
vn 0.5412 0.5789 0.6099
vn -0.0414 0.9870 0.1553
vn -0.1795 0.8084 -0.5606
vn -0.7346 0.6669 -0.1254
vn -0.2624 0.6240 0.7361
vn -0.3454 -0.2905 0.8924
vn 0.2718 0.6902 -0.6706
vn 0.2985 -0.4851 -0.8219
vn -0.2225 -0.2138 -0.9512
vn 0.7712 -0.2525 -0.5844
vn -0.2526 0.3673 -0.8951
vn -0.5139 -0.8054 -0.2954
vn -0.6570 -0.1057 -0.7464
vn 0.0213 -0.7030 -0.7109
vn -0.2156 0.8472 -0.4855
vn -0.0847 0.4015 -0.9119
vn 0.9973 0.0662 -0.0314
vn 0.5933 -0.2866 0.7522
vn 0.7112 -0.6793 0.1810
vn -0.2026 -0.9024 0.3804
vn -0.9203 -0.3908 -0.0157
vn 0.1815 -0.9625 -0.2015
vn 0.7120 -0.5647 -0.4174
vn -0.8375 0.5455 -0.0333
vn -0.1412 0.9741 0.1768
vn 0.5191 0.8407 -0.1543
vn 0.5150 0.6634 0.5429
vn -0.4532 0.5708 0.6847
vn -0.4875 -0.3531 0.7985
vn 0.3385 0.7363 -0.5859
vn 0.4936 -0.4261 -0.7582
vn 0.9000 -0.1544 -0.4077
vn 0.0087 -0.2028 -0.9792
vn 0.8484 0.4213 -0.3204
vt 0.745941 0.397865
vt 0.804647 0.397875
vt 0.804642 0.465337
vt 0.827638 0.454556
vt 0.804643 0.530569
vt 0.843918 0.465141
vt 0.887600 0.409495
vt 0.904758 0.465127
vt 0.949354 0.409491
vt 0.996994 0.409496
vt 0.996995 0.465127
vt 0.829254 0.375187
vt 0.875105 0.353968
vt 0.880545 0.387794
vt 0.843728 0.409505
vt 0.913935 0.368176
vt 0.879157 0.593691
vt 0.826009 0.556580
vt 0.880188 0.552838
vt 0.843836 0.518937
vt 0.904758 0.518924
vt 0.921453 0.569630
vt 0.949354 0.465119
vt 0.996995 0.518925
vt 0.949354 0.518917
vt 0.745942 0.465321
vt 0.745942 0.530554
s 1
usemtl Doom_MAT
f 135/190/141 136/191/142 151/192/143
f 151/192/143 152/193/144 141/194/145
f 150/195/146 138/196/147 149/197/148
f 138/196/147 139/198/149 149/197/148
f 139/198/149 135/199/141 147/200/150
f 136/201/142 135/202/141 145/203/151
f 137/204/152 136/201/142 145/203/151
f 138/196/147 137/204/152 145/203/151
f 139/205/149 138/196/147 145/203/151
f 135/202/141 139/205/149 145/203/151
f 140/206/153 141/207/145 146/208/154
f 141/207/145 142/209/155 146/208/154
f 142/209/155 143/210/156 146/208/154
f 143/210/156 144/211/157 146/208/154
f 144/211/157 140/206/153 146/208/154
f 148/212/158 147/200/150 140/213/153 144/214/157
f 149/197/148 148/212/158 144/214/157 143/210/156
f 150/195/146 143/210/156 142/209/155
f 147/215/150 151/192/143 140/216/153
f 135/190/141 151/192/143 147/215/150
f 140/216/153 151/192/143 141/194/145
f 149/197/148 143/210/156 150/195/146
f 137/204/152 138/196/147 150/195/146
f 149/197/148 139/198/149 148/212/158
f 139/198/149 147/200/150 148/212/158
f 141/194/145 152/193/159 142/209/155
f 152/193/160 136/191/142 137/204/152
f 150/195/146 152/193/161 137/204/152
f 151/192/143 136/191/142 152/193/162
f 142/209/155 152/193/163 150/195/146
f 153/190/164 169/192/165 154/191/166
f 169/192/165 159/194/167 170/193/168
f 168/195/169 167/197/170 156/196/171
f 156/196/171 167/197/170 157/198/172
f 157/198/172 165/200/173 153/199/164
f 154/201/166 163/203/174 153/202/164
f 155/204/175 163/203/174 154/201/166
f 156/196/171 163/203/174 155/204/175
f 157/205/172 163/203/174 156/196/171
f 153/202/164 163/203/174 157/205/172
f 158/206/176 164/208/177 159/207/167
f 159/207/167 164/208/177 160/209/178
f 160/209/178 164/208/177 161/210/179
f 161/210/179 164/208/177 162/211/180
f 162/211/180 164/208/177 158/206/176
f 166/212/181 162/214/180 158/213/176 165/200/173
f 167/197/170 161/210/179 162/214/180 166/212/181
f 168/195/169 160/209/178 161/210/179
f 165/215/173 158/216/176 169/192/165
f 153/190/164 165/215/173 169/192/165
f 158/216/176 159/194/167 169/192/165
f 167/197/170 168/195/169 161/210/179
f 155/204/175 168/195/169 156/196/171
f 167/197/170 166/212/181 157/198/172
f 157/198/172 166/212/181 165/200/173
f 159/194/167 160/209/178 170/193/182
f 170/193/183 155/204/175 154/191/166
f 168/195/169 155/204/175 170/193/184
f 169/192/165 170/193/185 154/191/166
f 160/209/178 168/195/169 170/193/186
o ground_GEO
v 0.269546 -0.000000 -0.269546
v 0.000000 -0.000000 -0.381196
v -0.269546 -0.000000 -0.269546
v -0.381196 -0.000000 -0.000000
v -0.269546 0.000000 0.269546
v 0.000000 0.000000 0.381196
v 0.269546 0.000000 0.269546
v 0.381196 -0.000000 -0.000000
v 0.000000 0.000000 0.000000
vn -0.0000 1.0000 -0.0000
vt 0.981820 0.024748
vt 0.520966 1.036901
vt 0.013779 0.024743
vt 0.981860 0.024742
vt 0.520983 1.036885
vt 0.013951 0.024732
vt 0.981821 0.024735
vt 0.520967 1.036876
vt 0.013784 0.024730
vt 0.981836 0.024748
vt 0.520965 1.036897
vt 0.013846 0.024738
vt 0.981814 0.024746
vt 0.520962 1.036897
vt 0.013755 0.024741
vt 0.981852 0.024742
vt 0.520977 1.036885
vt 0.013917 0.024732
vt 0.981815 0.024737
vt 0.520963 1.036880
vt 0.013759 0.024732
vt 0.981835 0.024751
vt 0.520965 1.036902
vt 0.013845 0.024741
s 1
usemtl treeline_MAT
f 172/217/187 179/218/187 171/219/187
f 173/220/187 179/221/187 172/222/187
f 174/223/187 179/224/187 173/225/187
f 175/226/187 179/227/187 174/228/187
f 176/229/187 179/230/187 175/231/187
f 177/232/187 179/233/187 176/234/187
f 178/235/187 179/236/187 177/237/187
f 171/238/187 179/239/187 178/240/187
o shotGun_GEO
v -0.270737 0.190670 0.343039
v -0.251719 0.191437 0.354990
v -0.274081 0.212547 0.346957
v -0.255062 0.213314 0.358908
v -0.125516 0.213110 0.128153
v -0.137964 0.207640 0.148313
v -0.152053 0.261069 0.167306
v -0.154884 0.241108 0.173092
v -0.167462 0.236410 0.175754
v -0.148443 0.237177 0.187705
v -0.151788 0.259053 0.191625
v -0.170807 0.258286 0.179674
v -0.142241 0.227722 0.153832
v -0.137742 0.247697 0.145390
v -0.289756 0.189903 0.331088
v -0.293099 0.211780 0.335006
v -0.141405 0.212470 0.118168
v -0.153853 0.207000 0.138329
v -0.167942 0.260428 0.157321
v -0.170773 0.240467 0.163107
v -0.186480 0.235643 0.163803
v -0.189825 0.257520 0.167723
v -0.158131 0.227081 0.143847
v -0.153631 0.247056 0.135406
vn -0.5117 -0.2266 0.8288
vn -0.1488 0.9734 0.1743
vn 0.4932 0.7124 0.4993
vn 0.5710 0.7705 0.2834
vn -0.1151 0.9861 0.1198
vn 0.2168 -0.9337 -0.2851
vn 0.8421 -0.5258 -0.1202
vn 0.7036 -0.6642 0.2528
vn 0.1488 -0.9734 -0.1743
vn 0.6960 0.7171 -0.0377
vn 0.5668 -0.8222 -0.0529
vn 0.3490 -0.4094 0.8430
vn 0.8460 0.5326 -0.0254
vn 0.2794 -0.7066 0.6501
vn 0.9311 -0.2724 -0.2427
vn -0.5463 0.7254 -0.4187
vn -0.7036 0.6642 -0.2528
vn -0.6650 -0.7447 0.0566
vn -0.1682 -0.3167 -0.9335
vn -0.4932 -0.7124 -0.4993
vn -0.2254 -0.5688 -0.7910
vn -0.3735 0.4835 -0.7917
vn -0.3082 0.6766 -0.6688
vn -0.1498 -0.8511 -0.5032
vn -0.8858 -0.4592 0.0671
vt 0.003633 0.007114
vt 0.070034 0.007114
vt 0.070034 0.073515
vt 0.003633 0.073515
vt 0.102369 0.698353
vt 0.056117 0.698353
vt 0.056117 0.481626
vt 0.102369 0.481626
vt 0.102326 0.481626
vt 0.056074 0.481626
vt 0.056074 0.698353
vt 0.102326 0.698353
vt 0.009864 0.698353
vt 0.009864 0.481626
vt 0.338328 0.081922
vt 0.338314 0.043187
vt 0.381240 0.043187
vt 0.381252 0.081922
vt 0.312762 0.043187
vt 0.312763 0.036053
vt 0.312762 0.081922
vt 0.434750 0.043187
vt 0.434787 0.081923
vt 0.479422 0.081924
vt 0.479413 0.121907
vt 0.434778 0.121902
vt 0.381272 0.121896
vt 0.338329 0.121896
vt 0.338308 0.006165
vt 0.381250 0.006165
vt 0.338332 0.081922
vt 0.381243 0.081922
vt 0.381230 0.043187
vt 0.338318 0.043187
vt 0.312762 0.097153
vt 0.312762 0.121896
vt 0.434749 0.006167
vt 0.434788 0.081922
vt 0.434747 0.043187
vt 0.312763 0.006176
s 1
usemtl Doom_MAT
f 180/241/188 181/242/188 183/243/188 182/244/188
f 182/245/189 183/246/190 190/247/191 191/248/192
f 188/249/193 189/250/194 181/251/195 180/252/196
f 181/253/195 189/254/194 190/247/191 183/246/190
f 186/255/197 187/256/198 192/257/199 193/258/200
f 187/256/198 189/259/194 188/260/193
f 186/255/197 189/259/194 187/256/198
f 190/261/191 189/259/194 186/255/197
f 193/258/200 192/257/199 185/262/201 184/263/202
f 180/241/188 182/244/188 195/243/188 194/242/188
f 182/245/189 191/248/192 201/247/203 195/246/204
f 185/264/201 197/265/205 196/266/206 184/263/202
f 188/249/193 180/252/196 194/251/207 200/250/208
f 194/253/207 195/246/204 201/247/203 200/254/208
f 193/258/200 203/267/209 198/268/210 186/255/197
f 187/256/198 199/269/211 202/270/212 192/257/199
f 198/271/210 203/272/209 202/273/212 199/274/211
f 187/256/198 188/260/193 199/269/211
f 198/271/210 199/274/211 200/259/208
f 191/275/192 198/268/210 201/276/203
f 201/261/203 198/271/210 200/259/208
f 192/257/199 202/270/212 197/277/205 185/262/201
f 203/272/209 196/278/206 197/279/205 202/273/212
f 184/263/202 196/266/206 203/267/209 193/258/200
f 199/269/211 188/260/193 200/280/208
f 191/275/192 190/261/191 186/255/197
f 186/255/197 198/268/210 191/275/192
o body_GEO
v -0.000000 0.310794 -0.002045
v 0.000000 0.236884 0.066953
v -0.000000 0.261985 -0.030682
v -0.000000 0.295450 -0.032639
v -0.000000 0.254163 0.073636
v -0.000000 0.212722 -0.012167
v -0.000000 0.181296 0.055591
v -0.000000 0.182682 -0.012175
v 0.000000 0.148311 0.025216
v -0.000000 0.153733 -0.005276
v 0.000000 0.155849 0.046434
v 0.000000 0.170754 -0.014025
v -0.000000 0.291660 0.041071
v 0.000000 0.164699 0.055545
v -0.000000 0.198149 -0.022919
v 0.000000 0.338611 -0.015781
v 0.065510 0.124117 0.078807
v 0.045507 0.114912 0.114328
v 0.014884 0.120870 0.087737
v 0.034052 0.129154 0.054738
v 0.056909 0.306918 0.012311
v 0.054709 0.238256 0.054003
v 0.063178 0.262902 -0.022130
v 0.063075 0.296439 -0.024041
v 0.057362 0.254164 0.057491
v 0.057679 0.291660 0.041071
v 0.031068 0.211327 -0.007104
v 0.029137 0.181296 0.048227
v 0.030947 0.181296 -0.007126
v 0.022081 0.154233 -0.004946
v 0.028103 0.186351 0.052941
v 0.001206 0.148311 0.025216
v 0.043517 0.181989 0.018938
v 0.045106 0.137760 0.118028
v 0.021117 0.142637 0.101166
v 0.039597 0.126176 0.086851
v 0.059844 0.144204 0.094122
v 0.035790 0.159758 0.002694
v 0.031274 0.198015 0.055780
v 0.007329 0.163107 0.059143
v 0.028610 0.141888 0.029001
v 0.037382 0.181311 0.086538
v 0.010924 0.152142 0.076500
v 0.034268 0.127578 0.058441
v 0.063196 0.153030 0.065966
v 0.050805 0.170936 0.025772
v 0.035862 0.196707 -0.014088
v 0.050198 0.191891 0.018934
v 0.041742 0.207847 0.018933
v 0.029658 0.335125 -0.003129
v 0.037224 0.201612 0.046712
v 0.030443 0.308400 0.012893
v 0.035142 0.298483 0.031358
v 0.037406 0.330803 0.012690
v 0.035142 0.314486 0.031358
v 0.040374 0.312816 -0.010162
v 0.000000 0.314014 -0.020946
v 0.044240 0.309869 0.012386
v -0.056909 0.306918 0.012311
v -0.054709 0.238256 0.054003
v -0.063178 0.262902 -0.022130
v -0.063075 0.296439 -0.024041
v -0.057362 0.254164 0.057491
v -0.057679 0.291660 0.041071
v -0.031068 0.211327 -0.007104
v -0.029137 0.181296 0.048227
v -0.030947 0.181296 -0.007126
v -0.022081 0.154233 -0.004946
v -0.041065 0.163280 0.047113
v -0.001206 0.148311 0.025216
v -0.043517 0.181989 0.018938
v -0.022892 0.173551 -0.007861
v -0.052888 0.155973 0.041451
v -0.015061 0.137620 0.035494
v -0.008373 0.156510 -0.001444
v -0.056550 0.121464 0.033829
v -0.016277 0.117536 0.030056
v -0.012050 0.125409 -0.007288
v -0.050992 0.130273 -0.008372
v -0.040605 0.173561 0.002017
v -0.035862 0.196707 -0.014088
v -0.050198 0.191891 0.018934
v -0.041742 0.207847 0.018933
v -0.029658 0.335125 -0.003129
v -0.037224 0.201612 0.046712
v -0.030443 0.308400 0.012893
v -0.035142 0.298483 0.031358
v -0.037852 0.330496 0.011835
v -0.035142 0.314486 0.031358
v -0.040374 0.312816 -0.010162
v -0.044240 0.309869 0.012386
v 0.046572 0.072531 0.105936
v 0.066407 0.073052 0.066279
v 0.016208 0.069869 0.075073
v 0.037005 0.069399 0.044270
v 0.015821 0.041836 0.072224
v 0.036929 0.042554 0.039164
v 0.069425 0.042067 0.064213
v 0.050699 0.061317 0.134175
v 0.061383 0.057494 0.126177
v 0.051178 0.041882 0.137370
v 0.063622 0.041882 0.129814
v 0.038087 0.057494 0.129670
v 0.036686 0.041882 0.133853
v 0.070761 0.062234 0.099448
v 0.074196 0.041956 0.098861
v 0.023615 0.041793 0.106752
v 0.026844 0.062111 0.106280
v 0.048044 0.069480 0.115662
v 0.046860 0.079264 0.108370
v 0.042335 0.169282 0.110748
v 0.036258 0.086069 0.047370
v -0.053487 0.083833 -0.018759
v -0.057138 0.069947 0.017661
v -0.016315 0.072862 0.015353
v -0.011010 0.086464 -0.020866
v -0.059107 0.082941 0.023501
v -0.025430 0.091702 0.022878
v -0.023935 0.099151 -0.004683
v -0.051954 0.100809 -0.004786
v -0.058204 0.030646 0.002500
v -0.048389 0.035547 -0.039240
v -0.014093 0.023877 -0.003323
v -0.011732 0.028133 -0.039919
v -0.013640 0.000440 -0.005059
v -0.008692 0.001469 -0.043955
v -0.049397 0.000671 -0.045788
v -0.080274 0.019921 0.019725
v -0.083268 0.016097 0.006719
v -0.082703 0.000486 0.021855
v -0.087326 0.000485 0.008051
v -0.067735 0.016097 0.024429
v -0.069366 0.000486 0.028527
v -0.073170 0.020841 -0.019744
v -0.075413 0.000560 -0.022412
v -0.041886 0.000396 0.016274
v -0.044047 0.020714 0.013828
v -0.066293 0.028084 0.007303
v -0.057638 0.035497 0.006660
v -0.060233 0.094759 0.028481
v -0.012185 0.044697 -0.035235
vn -0.0000 0.8088 0.5880
vn -0.0000 0.1260 0.9920
vn 0.4814 0.6342 0.6051
vn 0.0023 0.8609 0.5088
vn -0.0000 -0.2070 -0.9783
vn -0.0000 0.2502 -0.9682
vn 0.7615 0.4601 -0.4566
vn 0.7441 -0.3439 -0.5727
vn 0.4518 0.8577 0.2452
vn 0.7177 -0.3833 0.5813
vn 0.8642 -0.0003 0.5032
vn -0.6893 0.4903 0.5334
vn 0.6755 -0.1567 0.7205
vn -0.0000 -0.0759 0.9971
vn -0.0000 -0.0634 -0.9980
vn 0.6190 0.0157 -0.7852
vn 0.9892 -0.1132 -0.0936
vn 0.0173 -0.2495 0.9682
vn -0.5283 0.6185 -0.5817
vn 0.9710 0.0223 -0.2380
vn 0.5637 -0.3428 -0.7515
vn 0.5336 -0.4144 -0.7372
vn 0.0736 -0.1725 -0.9823
vn 0.0747 0.0815 -0.9939
vn -0.0666 -0.9940 0.0871
vn 0.0616 -0.9550 0.2900
vn -0.0000 -0.8043 -0.5943
vn 0.2789 -0.4510 -0.8479
vn 0.2585 -0.8058 0.5328
vn -0.9504 0.0493 0.3070
vn 0.0593 0.8424 0.5356
vn 0.0479 0.9002 0.4328
vn -0.0896 -0.9560 -0.2794
vn 0.1878 0.0143 0.9821
vn 0.9790 0.0728 0.1904
vn 0.1709 0.2350 0.9568
vn 0.1772 -0.1793 0.9677
vn 0.9898 0.1410 -0.0182
vn -0.8658 -0.0067 0.5003
vn -0.9492 0.0042 0.3147
vn -0.1779 0.6222 -0.7624
vn 0.3547 -0.5512 0.7552
vn -0.1422 0.9818 -0.1261
vn -0.9555 0.2526 0.1525
vn -0.0242 -0.9804 -0.1955
vn 0.9762 0.0816 -0.2010
vn 0.9958 0.0851 -0.0346
vn 0.6439 -0.0037 -0.7651
vn -0.0000 0.0135 -0.9999
vn -0.0000 -0.5161 -0.8566
vn 0.9907 -0.0948 0.0977
vn -0.0000 -0.2889 0.9574
vn 0.9265 0.3762 -0.0132
vn 0.5638 0.6766 -0.4735
vn 0.6532 0.4945 -0.5734
vn -0.0000 0.5310 -0.8474
vn -0.0000 0.3444 -0.9388
vn -0.6881 0.4393 0.5775
vn -0.0000 0.7807 0.6249
vn -0.0000 0.4759 0.8795
vn -0.6047 0.3962 0.6909
vn -0.9043 0.2829 0.3197
vn -0.9691 -0.0000 0.2466
vn -0.9689 0.1494 0.1974
vn 0.9055 0.1452 0.3988
vn 0.9509 0.2051 0.2317
vn 0.2153 0.9152 0.3406
vn 0.9017 -0.0000 0.4324
vn -0.4814 0.6342 0.6051
vn -0.0023 0.8609 0.5088
vn -0.7441 -0.3439 -0.5728
vn -0.7615 0.4601 -0.4566
vn -0.4518 0.8577 0.2453
vn -0.8642 -0.0003 0.5032
vn -0.7177 -0.3833 0.5813
vn -0.4895 -0.0069 0.8720
vn -0.6755 -0.1567 0.7205
vn -0.6190 0.0157 -0.7852
vn -0.9892 -0.1132 -0.0936
vn -0.5190 -0.3031 0.7992
vn -0.9902 -0.1311 -0.0486
vn -0.5796 -0.5364 -0.6135
vn -0.2972 -0.1416 -0.9443
vn 0.0453 -0.9964 0.0719
vn -0.8318 -0.5066 -0.2267
vn 0.0856 0.9334 -0.3485
vn -0.7479 0.2098 0.6298
vn 0.5046 -0.2060 0.8385
vn -0.7305 -0.0316 0.6822
vn 0.5560 -0.3073 0.7723
vn -0.6852 0.4041 -0.6060
vn -0.7557 0.1185 -0.6441
vn 0.6910 -0.2122 -0.6910
vn -0.6439 -0.0037 -0.7651
vn -0.9907 -0.0948 0.0977
vn -0.9270 0.3738 -0.0295
vn -0.6437 0.4913 -0.5867
vn -0.5641 0.6742 -0.4767
vn 0.6831 0.4470 0.5775
vn 0.5895 0.4022 0.7006
vn 0.8815 0.3133 0.3532
vn 0.9680 0.1600 0.1934
vn 0.9691 -0.0000 0.2466
vn -0.9059 0.1424 0.3989
vn -0.9518 0.1963 0.2357
vn -0.2153 0.9152 0.3406
vn -0.9017 -0.0000 0.4324
vn 0.7427 0.4522 0.4940
vn 0.1208 0.5109 0.8511
vn 0.7212 0.2039 0.6621
vn -0.5400 0.2122 0.8145
vn 0.1513 0.1640 0.9748
vn 0.8549 0.1403 -0.4995
vn 0.8970 0.2238 -0.3811
vn 0.7469 0.6173 0.2471
vn 0.9810 0.1565 0.1145
vn 0.0657 0.7458 0.6630
vn -0.6908 0.5872 0.4218
vn 0.0219 0.9273 0.3736
vn -0.9907 0.1280 -0.0456
vn -0.9815 0.0802 -0.1740
vn -0.9258 0.1149 0.3600
vn 0.0026 -1.0000 -0.0090
vn 0.0026 -1.0000 -0.0094
vn 0.0012 -0.9998 -0.0210
vn 0.0012 -1.0000 0.0001
vn 0.0011 -1.0000 0.0001
vn 0.0028 -1.0000 -0.0015
vn 0.0029 -1.0000 -0.0016
vn -0.6272 0.4611 0.6277
vn -0.0000 -1.0000 -0.0000
vn 0.1778 -0.2630 0.9483
vn -0.1775 0.1726 -0.9689
vn -0.1606 0.1586 -0.9742
vn -0.1665 0.1565 -0.9735
vn -0.7351 -0.1482 0.6616
vn -0.7390 -0.3474 0.5772
vn -0.7420 -0.3194 0.5894
vn -0.6989 0.2051 -0.6852
vn -0.7956 0.3054 -0.5232
vn -0.7225 -0.2341 0.6506
vn 0.5570 -0.1699 0.8130
vn 0.6502 -0.2424 0.7201
vn 0.6865 0.5365 -0.4908
vn 0.7151 0.3901 -0.5800
vn -0.8860 0.4521 -0.1026
vn -0.9782 0.2039 0.0399
vn -0.6418 0.5109 0.5719
vn -0.7449 0.1640 0.6467
vn -0.1136 0.2121 0.9706
vn -0.3273 0.1785 -0.9279
vn -0.8157 0.1733 -0.5518
vn -0.7549 0.5944 -0.2772
vn -0.4739 0.3362 -0.8139
vn -0.4877 0.7804 0.3912
vn -0.2576 0.9319 0.2553
vn 0.2635 0.5963 0.7583
vn 0.8313 0.0306 0.5550
vn 0.4718 0.1088 0.8750
vn 0.8632 0.0578 0.5015
vn 0.0066 -0.9999 -0.0110
vn 0.0207 -0.9995 -0.0238
vn 0.0070 -0.9999 -0.0114
vn -0.0010 -1.0000 -0.0007
vn -0.0011 -1.0000 -0.0031
vn -0.0012 -1.0000 -0.0030
vn -0.0009 -1.0000 -0.0006
vn 0.0736 0.4611 0.8843
vn -0.6911 -0.3441 0.6356
vn 0.7232 0.2154 -0.6562
vn 0.7179 0.1780 -0.6730
vn 0.7377 0.1678 -0.6539
vt 0.132812 0.877373
vt 0.132812 0.762637
vt 0.259879 0.858735
vt 0.208000 0.884056
vt 0.431821 0.762398
vt 0.431821 0.859446
vt 0.336292 0.859544
vt 0.336488 0.762403
vt 0.298761 0.878759
vt 0.233920 0.719367
vt 0.259809 0.762631
vt 0.232351 0.585096
vt 0.232910 0.640572
vt 0.132812 0.585519
vt 0.431817 0.640556
vt 0.358773 0.640556
vt 0.291810 0.640556
vt 0.132812 0.530155
vt 0.211332 0.530183
vt 0.282306 0.584795
vt 0.346786 0.544668
vt 0.351492 0.584795
vt 0.431812 0.544849
vt 0.431812 0.584795
vt 0.421875 0.492262
vt 0.431812 0.492255
vt 0.431812 0.519872
vt 0.366696 0.518259
vt 0.140625 0.492310
vt 0.132812 0.492256
vt 0.132812 0.508353
vt 0.140625 0.390677
vt 0.211333 0.311102
vt 0.211333 0.390968
vt 0.351480 0.500182
vt 0.211334 0.286717
vt 0.281250 0.309204
vt 0.211336 0.250853
vt 0.281250 0.250857
vt 0.140625 0.308920
vt 0.140625 0.250850
vt 0.421875 0.309272
vt 0.351333 0.250867
vt 0.421875 0.250855
vt 0.351305 0.309642
vt 0.211338 0.510158
vt 0.140625 0.459040
vt 0.351412 0.391158
vt 0.421875 0.390682
vt 0.421875 0.476229
vt 0.281250 0.530248
vt 0.281250 0.391578
vt 0.259179 0.919783
vt 0.351320 0.607707
vt 0.431814 0.607734
vt 0.287044 0.607670
vt 0.132812 0.719039
vt 0.140281 0.994461
vt 0.164052 0.935308
vt 0.182784 0.994446
vt 0.264162 0.935307
vt 0.260265 0.994460
vt 0.204414 0.920677
vt 0.132813 0.929738
vt 0.306225 0.941419
vt 0.346554 0.995944
vt 0.346370 0.942535
vt 0.306133 0.982392
vt 0.288674 0.966531
vt 0.292043 0.917004
vt 0.280785 0.934774
vt 0.080697 0.994451
vt 0.112676 0.935304
vt 0.256136 0.877086
vt 0.224072 0.877088
vt 0.431834 0.903189
vt 0.222638 0.919486
vt 0.056308 0.935302
vt 0.005746 0.858735
vt 0.057625 0.884056
vt 0.005816 0.762631
vt 0.031705 0.719367
vt 0.005556 0.919789
vt 0.132812 0.719039
vt 0.061211 0.920677
vt 0.008747 0.965088
vt 0.043452 0.965088
vt 0.368700 0.901689
vt 0.043878 0.919479
vt 0.626708 0.394648
vt 0.632812 0.344326
vt 0.560695 0.394660
vt 0.560199 0.394657
vt 0.560803 0.344325
vt 0.560999 0.531924
vt 0.637158 0.531884
vt 0.626711 0.454586
vt 0.560755 0.454748
vt 0.680360 0.472793
vt 0.626710 0.454351
vt 0.680359 0.442805
vt 0.637158 0.530915
vt 0.559583 0.531007
vt 0.559514 0.453103
vt 0.626711 0.453056
vt 0.441406 0.531048
vt 0.550781 0.531007
vt 0.496094 0.595351
vt 0.463136 0.394713
vt 0.529052 0.394657
vt 0.550781 0.453103
vt 0.441406 0.453770
vt 0.626708 0.394652
vt 0.727593 0.454882
vt 0.680359 0.385667
vt 0.727606 0.394593
vt 0.626710 0.394593
vt 0.496094 0.377263
vt 0.211337 0.158150
vt 0.281250 0.129014
vt 0.211338 0.129007
vt 0.140625 0.129000
vt 0.421875 0.129010
vt 0.351381 0.154099
vt 0.727583 0.532180
vt 0.631924 0.597464
vt 0.560920 0.597422
vt 0.631952 0.597469
vt 0.560085 0.597426
vt 0.637158 0.532227
vt 0.351394 0.129021
s 1
usemtl Doom_MAT
f 216/281/213 208/282/214 229/283/215
f 256/284/216 216/281/213 229/283/215
f 206/285/217 207/286/218 227/287/219 226/288/220
f 229/283/215 227/287/219 224/289/221
f 208/282/214 225/290/222 228/291/223
f 227/287/219 229/283/215 228/291/223
f 231/292/224 254/293/225 210/294/226
f 206/285/217 226/288/220 209/295/227
f 230/296/228 226/288/220 252/297/229
f 227/287/219 228/291/223 226/288/220
f 226/288/220 228/291/223 225/290/222
f 209/295/227 226/288/220 230/296/228
f 217/298/230 234/299/231 231/292/224
f 236/300/232 241/301/233 232/302/234
f 215/303/235 211/304/236 241/301/233
f 235/305/237 212/306/238 213/307/239 233/308/240
f 234/299/231 236/300/232 231/292/224
f 235/309/237 234/299/231 212/310/238
f 212/310/238 234/299/231 214/311/241
f 246/312/242 314/313/243 245/314/244
f 233/308/240 244/315/245 235/305/237
f 237/316/246 240/317/247 314/313/248
f 240/317/247 221/318/249 220/319/250
f 221/318/249 238/320/251 222/321/252
f 238/322/251 223/323/253 222/324/252
f 239/325/254 240/317/247 223/323/253
f 240/317/247 237/316/246 221/318/249
f 237/316/246 238/320/251 221/318/249
f 223/323/253 240/317/247 220/319/250
f 238/322/251 239/325/254 223/323/253
f 213/307/239 215/303/235 233/308/240
f 244/315/245 233/308/240 241/301/233
f 242/326/255 234/299/231 243/327/256
f 240/317/247 239/325/254 247/328/257
f 246/329/242 247/328/257 238/322/251
f 243/327/256 234/299/231 235/309/237
f 244/315/245 243/330/256 235/305/237
f 243/327/256 246/312/242 245/314/244 242/326/255
f 234/299/231 249/331/258 236/300/232
f 245/314/244 248/332/259 249/331/258 242/326/255
f 248/332/259 247/328/257 244/315/245 249/331/258
f 243/330/256 244/315/245 247/328/257 246/329/242
f 240/317/247 247/328/257 248/332/259
f 238/322/251 247/328/257 239/325/254
f 236/300/232 249/331/258 241/301/233
f 241/301/233 249/331/258 244/315/245
f 214/311/241 234/299/231 217/298/230
f 217/298/230 231/292/224 210/294/226
f 228/291/223 229/283/215 208/282/214
f 224/333/221 256/284/216 229/283/215
f 241/301/233 211/304/236 232/302/234
f 209/295/227 230/296/228 250/334/260 218/335/261
f 232/302/234 211/304/262 218/335/261 250/334/260
f 231/292/224 236/300/232 251/336/263
f 251/336/263 236/300/232 232/302/234 250/334/260
f 230/296/228 252/297/229 251/336/263 250/334/260
f 252/297/229 254/293/225 251/336/263
f 252/297/229 226/288/220 225/290/222
f 205/337/264 225/290/222 208/282/214
f 257/338/265 259/339/266 253/340/267
f 259/339/266 260/341/268 219/342/269
f 242/326/255 249/331/258 234/299/231
f 252/297/229 225/290/222 254/293/225
f 254/293/225 225/290/222 205/337/264
f 254/293/225 205/337/264 210/294/226
f 255/343/270 204/344/271 256/284/216
f 255/345/270 219/346/272 204/347/271
f 255/345/270 253/348/273 219/346/272
f 253/348/273 255/345/270 257/349/274
f 255/345/270 256/350/275 258/351/276
f 258/352/277 261/353/278 257/338/265
f 227/354/219 259/355/266 224/333/221
f 227/287/219 207/286/218 260/356/268
f 256/284/216 224/333/221 261/357/279
f 259/355/266 261/357/279 224/333/221
f 255/345/270 258/351/276 257/349/274
f 261/353/278 259/339/266 257/338/265
f 256/358/280 261/353/278 258/352/277
f 204/344/271 216/281/213 256/284/216
f 259/339/266 219/342/269 253/340/267
f 216/281/213 267/359/281 208/282/214
f 290/360/282 267/359/281 216/281/213
f 206/285/217 264/288/283 265/287/284 207/286/218
f 267/283/281 262/289/285 265/287/284
f 208/282/214 266/361/286 263/362/287
f 265/287/284 266/291/286 267/283/281
f 269/292/288 210/294/226 288/293/289
f 206/285/217 209/295/227 264/288/283
f 268/296/290 286/297/291 264/288/283
f 265/287/284 264/288/283 266/291/286
f 264/288/283 263/290/287 266/291/286
f 209/295/227 268/296/290 264/288/283
f 217/298/230 269/292/288 272/299/292
f 274/300/293 270/302/294 275/301/295
f 215/303/235 275/301/295 211/304/236
f 273/305/296 271/308/297 213/307/239 212/306/238
f 272/299/292 269/292/288 274/300/293
f 273/309/296 212/310/238 272/299/292
f 212/310/238 214/311/241 272/299/292
f 271/308/297 273/305/296 278/315/298
f 215/303/235 271/308/297 275/301/295
f 278/315/298 275/301/295 271/308/297
f 276/326/299 277/327/300 272/299/292
f 277/327/300 273/309/296 272/299/292
f 278/315/298 273/305/296 277/330/300
f 277/327/300 276/326/299 279/314/301 280/312/302
f 272/299/292 274/300/293 283/331/303
f 279/314/301 276/326/299 283/331/303 282/332/304
f 282/332/304 283/331/303 278/315/298 281/328/305
f 277/330/300 280/329/302 281/328/305 278/315/298
f 274/300/293 275/301/295 283/331/303
f 275/301/295 278/315/298 283/331/303
f 214/311/241 217/298/230 272/299/292
f 217/298/230 210/294/226 269/292/288
f 266/361/286 208/282/214 267/359/281
f 262/363/285 267/359/281 290/360/282
f 275/301/295 270/302/294 211/304/236
f 209/295/227 218/335/261 284/334/306 268/296/290
f 270/302/294 284/334/306 218/335/261 211/304/262
f 269/292/288 285/336/307 274/300/293
f 286/297/291 285/336/307 288/293/289
f 285/336/307 284/334/306 270/302/294 274/300/293
f 268/296/290 284/334/306 285/336/307 286/297/291
f 286/297/291 263/290/287 264/288/283
f 205/337/264 208/282/214 263/362/287
f 291/338/308 287/340/309 293/339/310
f 293/339/310 219/342/269 260/341/268
f 276/326/299 272/299/292 283/331/303
f 286/297/291 288/293/289 263/290/287
f 288/293/289 205/364/264 263/290/287
f 288/293/289 210/294/226 205/364/264
f 289/365/311 290/360/282 204/344/271
f 289/345/311 204/347/271 219/346/272
f 289/345/311 219/346/272 287/348/312
f 287/348/312 291/349/313 289/345/311
f 289/345/311 292/351/314 290/350/315
f 292/352/316 291/338/308 294/353/317
f 265/366/284 262/363/285 293/367/310
f 265/287/284 293/368/310 260/356/268
f 290/360/282 294/369/318 262/363/285
f 293/367/310 262/363/285 294/369/318
f 289/345/311 291/349/313 292/351/314
f 294/353/317 291/338/308 293/339/310
f 290/358/319 292/352/316 294/353/317
f 204/344/271 290/360/282 216/281/213
f 293/339/310 287/340/309 219/342/269
f 227/287/219 260/356/268 259/368/266
f 265/287/284 260/356/268 207/286/218
f 288/293/289 285/336/307 269/292/288
f 251/336/263 254/293/225 231/292/224
f 303/370/320 302/371/321 305/372/322
f 302/371/321 307/373/323 304/374/324
f 301/375/325 296/376/326 308/377/327 309/378/328
f 295/379/329 311/380/330 312/381/331
f 297/382/332 299/383/333 310/384/334 311/385/330
f 301/386/335 299/387/336 300/388/337
f 309/378/328 308/377/327 303/370/320 305/372/322
f 305/389/338 307/390/339 310/391/340 309/392/341
f 311/385/330 310/384/334 307/373/323 306/393/342
f 308/394/327 312/381/331 302/395/321 303/396/320
f 312/381/331 311/380/330 306/397/342 302/395/321
f 304/398/343 307/390/339 305/389/338
f 309/392/341 310/391/340 299/387/336 301/386/335
f 313/399/344 296/400/326 220/319/250
f 295/401/329 313/399/344 297/402/332
f 222/324/252 223/323/253 297/403/332
f 223/323/253 296/400/326 315/404/345
f 296/405/326 295/379/329 308/394/327
f 298/406/346 296/376/326 301/375/325 300/407/347
f 297/382/332 298/408/346 300/409/347 299/383/333
f 302/371/321 306/393/342 307/373/323
f 305/372/322 302/371/321 304/374/324
f 308/394/327 295/379/329 312/381/331
f 295/379/329 297/410/332 311/380/330
f 295/401/329 296/400/326 313/399/344
f 222/321/252 313/399/344 221/318/249
f 313/399/344 220/319/250 221/318/249
f 297/402/332 313/399/344 222/321/252
f 314/313/243 240/317/247 248/332/259
f 314/313/248 238/320/251 237/316/246
f 314/313/243 248/332/259 245/314/244
f 246/312/242 238/320/251 314/313/243
f 315/404/345 296/400/326 298/411/346
f 297/403/332 315/404/345 298/411/346
f 223/323/253 220/319/250 296/400/326
f 297/403/332 223/323/253 315/404/345
f 280/312/302 279/314/301 343/313/348
f 320/316/349 343/313/350 323/317/351
f 323/317/351 316/319/352 317/318/353
f 317/318/353 318/321/354 321/320/355
f 321/322/355 318/324/354 319/323/356
f 322/325/357 319/323/356 323/317/351
f 323/317/351 317/318/353 320/316/349
f 320/316/349 317/318/353 321/320/355
f 319/323/356 316/319/352 323/317/351
f 321/322/355 319/323/356 322/325/357
f 323/317/351 281/328/305 322/325/357
f 280/329/302 321/322/355 281/328/305
f 323/317/351 282/332/304 281/328/305
f 321/322/355 322/325/357 281/328/305
f 332/370/358 334/372/359 331/371/360
f 331/371/360 333/374/361 336/373/362
f 330/375/363 338/378/364 337/377/365 325/376/366
f 324/379/367 341/381/368 340/380/369
f 326/382/370 340/385/369 339/384/371 328/383/372
f 330/386/373 329/388/374 328/387/375
f 338/378/364 334/372/359 332/370/358 337/377/365
f 334/389/376 338/392/377 339/391/378 336/390/379
f 340/385/369 335/393/380 336/373/362 339/384/371
f 337/394/365 332/396/358 331/395/360 341/381/368
f 341/381/368 331/395/360 335/397/380 340/380/369
f 333/398/343 334/389/376 336/390/379
f 338/392/377 330/386/373 328/387/375 339/391/378
f 342/399/381 316/319/352 325/400/366
f 324/401/367 326/402/370 342/399/381
f 318/324/354 326/403/370 319/323/356
f 319/323/356 344/404/382 325/400/366
f 325/405/366 337/394/365 324/379/367
f 327/406/383 329/407/384 330/375/363 325/376/366
f 326/382/370 328/383/372 329/409/384 327/408/383
f 331/371/360 336/373/362 335/393/380
f 334/372/359 333/374/361 331/371/360
f 337/394/365 341/381/368 324/379/367
f 324/379/367 340/380/369 326/410/370
f 324/401/367 342/399/381 325/400/366
f 318/321/354 317/318/353 342/399/381
f 342/399/381 317/318/353 316/319/352
f 326/402/370 318/321/354 342/399/381
f 343/313/348 282/332/304 323/317/351
f 343/313/350 320/316/349 321/320/355
f 343/313/348 279/314/301 282/332/304
f 280/312/302 343/313/348 321/320/355
f 344/404/382 327/411/383 325/400/366
f 326/403/370 327/411/383 344/404/382
f 319/323/356 325/400/366 316/319/352
f 326/403/370 344/404/382 319/323/356
f 213/307/239 271/308/297 215/303/235
f 233/308/240 215/303/235 241/301/233
o rocks_GEO
v -0.293411 -0.003444 -0.032731
v -0.342134 -0.003444 -0.039252
v -0.363392 -0.003444 0.005070
v -0.327808 -0.003444 0.038984
v -0.284557 -0.003444 0.015622
v -0.304431 0.047626 -0.021169
v -0.334543 0.047626 -0.025199
v -0.347681 0.047626 0.002193
v -0.325689 0.047626 0.023153
v -0.298959 0.047626 0.008715
v -0.322260 0.101505 -0.002461
v -0.136600 -0.005542 -0.242939
v -0.249476 -0.005542 -0.258047
v -0.298725 -0.005542 -0.155364
v -0.216286 -0.005542 -0.076795
v -0.116088 -0.005542 -0.130919
v -0.162129 0.072699 -0.216153
v -0.231890 0.072699 -0.225490
v -0.262327 0.072699 -0.162029
v -0.211378 0.072699 -0.113470
v -0.149451 0.072699 -0.146921
v -0.203435 0.155244 -0.172813
v 0.113054 -0.004060 -0.255242
v 0.000329 -0.004060 -0.362936
v -0.136929 -0.004060 -0.289008
v -0.109034 -0.004060 -0.135623
v 0.045464 -0.004060 -0.114754
v 0.063216 0.091528 -0.246178
v -0.006452 0.091528 -0.312737
v -0.091282 0.091528 -0.267047
v -0.074042 0.091528 -0.172249
v 0.021443 0.091528 -0.159352
v -0.017423 0.198421 -0.231513
v 0.147661 -0.002384 -0.299188
v 0.074713 -0.002384 -0.211737
v 0.135341 -0.002384 -0.115334
v 0.245760 -0.002384 -0.143206
v 0.253375 -0.002384 -0.256833
v 0.156717 0.075858 -0.263310
v 0.111632 0.075858 -0.209263
v 0.149103 0.075858 -0.149683
v 0.217346 0.075858 -0.166908
v 0.222052 0.075858 -0.237134
v 0.171370 0.158402 -0.205260
vn 0.1286 0.2453 -0.9609
vn -0.8741 0.2453 -0.4192
vn -0.6688 0.2453 0.7018
vn 0.4607 0.2453 0.8530
vn 0.9536 0.2453 -0.1746
vn 0.1237 0.3618 -0.9240
vn -0.8406 0.3618 -0.4032
vn -0.6432 0.3618 0.6749
vn 0.4431 0.3618 0.8203
vn 0.9170 0.3618 -0.1679
vn 0.1239 0.3573 -0.9257
vn -0.8421 0.3573 -0.4039
vn -0.6444 0.3573 0.6761
vn 0.4439 0.3573 0.8217
vn 0.9187 0.3573 -0.1682
vn 0.1144 0.5061 -0.8549
vn -0.7777 0.5061 -0.3730
vn -0.5950 0.5061 0.6243
vn 0.4099 0.5061 0.7588
vn 0.8484 0.5061 -0.1553
vn 0.6349 0.3940 -0.6646
vn -0.4358 0.3940 -0.8092
vn -0.9043 0.3940 0.1645
vn -0.1230 0.3940 0.9108
vn 0.8282 0.3940 0.3985
vn 0.5870 0.5271 -0.6144
vn -0.4030 0.5271 -0.7482
vn -0.8361 0.5271 0.1520
vn -0.1138 0.5271 0.8421
vn 0.7658 0.5271 0.3684
vn -0.7172 0.3573 -0.5983
vn -0.7906 0.3573 0.4972
vn 0.2286 0.3573 0.9056
vn 0.9319 0.3573 0.0624
vn 0.3474 0.3573 -0.8670
vn -0.6623 0.5061 -0.5525
vn -0.7301 0.5061 0.4592
vn 0.2111 0.5061 0.8362
vn 0.8605 0.5061 0.0577
vn 0.3208 0.5061 -0.8006
vt 0.579392 0.897178
vt 0.114951 0.743030
vt 0.277288 0.621172
vt 0.513671 0.705135
vt 0.118040 0.253678
vt 0.284090 0.370419
vt 0.584385 0.105408
vt 0.524682 0.299394
vt 0.869525 0.503101
vt 0.666563 0.506270
vt 0.453258 0.500479
s 1
usemtl Rock_MAT
f 345/412/385 346/413/385 351/414/385 350/415/385
f 346/413/386 347/416/386 352/417/386 351/414/386
f 347/416/387 348/418/387 353/419/387 352/417/387
f 348/418/388 349/420/388 354/421/388 353/419/388
f 349/420/389 345/412/389 350/415/389 354/421/389
f 350/415/390 351/414/390 355/422/390
f 351/414/391 352/417/391 355/422/391
f 352/417/392 353/419/392 355/422/392
f 353/419/393 354/421/393 355/422/393
f 354/421/394 350/415/394 355/422/394
f 356/412/395 357/413/395 362/414/395 361/415/395
f 357/413/396 358/416/396 363/417/396 362/414/396
f 358/416/397 359/418/397 364/419/397 363/417/397
f 359/418/398 360/420/398 365/421/398 364/419/398
f 360/420/399 356/412/399 361/415/399 365/421/399
f 361/415/400 362/414/400 366/422/400
f 362/414/401 363/417/401 366/422/401
f 363/417/402 364/419/402 366/422/402
f 364/419/403 365/421/403 366/422/403
f 365/421/404 361/415/404 366/422/404
f 367/412/405 368/413/405 373/414/405 372/415/405
f 368/413/406 369/416/406 374/417/406 373/414/406
f 369/416/407 370/418/407 375/419/407 374/417/407
f 370/418/408 371/420/408 376/421/408 375/419/408
f 371/420/409 367/412/409 372/415/409 376/421/409
f 372/415/410 373/414/410 377/422/410
f 373/414/411 374/417/411 377/422/411
f 374/417/412 375/419/412 377/422/412
f 375/419/413 376/421/413 377/422/413
f 376/421/414 372/415/414 377/422/414
f 378/412/415 379/413/415 384/414/415 383/415/415
f 379/413/416 380/416/416 385/417/416 384/414/416
f 380/416/417 381/418/417 386/419/417 385/417/417
f 381/418/418 382/420/418 387/421/418 386/419/418
f 382/420/419 378/412/419 383/415/419 387/421/419
f 383/415/420 384/414/420 388/422/420
f 384/414/421 385/417/421 388/422/421
f 385/417/422 386/419/422 388/422/422
f 386/419/423 387/421/423 388/422/423
f 387/421/424 383/415/424 388/422/424
o helmet_GEO
v -0.011398 0.284804 0.051627
v 0.010671 0.322933 -0.011058
v -0.013698 0.303971 0.056476
v -0.014457 0.326104 0.056925
v 0.008937 0.341053 -0.007669
v -0.013895 0.340486 0.054353
v -0.010644 0.356955 0.044329
v 0.001742 0.361403 0.010381
v -0.006199 0.363652 0.031776
v -0.001174 0.299751 0.022785
v 0.003646 0.288806 0.049443
v 0.024053 0.301829 0.036303
v 0.026489 0.315880 0.010439
v 0.011757 0.317612 0.053744
v 0.010485 0.333389 0.055216
v 0.026866 0.340415 0.004852
v 0.003794 0.345522 0.052484
v 0.014435 0.355213 0.034855
v 0.022672 0.350057 0.012980
v 0.023258 0.344528 0.034236
v 0.032593 0.332927 0.028004
v -0.021603 0.288130 0.040142
v -0.029206 0.300401 0.016684
v -0.014953 0.314769 -0.004827
v -0.031914 0.316441 0.037657
v -0.032646 0.332233 0.039327
v -0.012775 0.339352 -0.009751
v -0.026363 0.344714 0.041375
v -0.023477 0.354197 0.020889
v -0.015312 0.349039 -0.001012
v -0.029277 0.343120 0.014884
v -0.031783 0.331201 0.004289
vn 0.5460 -0.1319 0.8273
vn -0.3372 -0.1626 0.9273
vn 0.3602 -0.2428 0.9007
vn 0.9564 0.1453 0.2534
vn 0.9294 -0.1749 -0.3250
vn 0.8135 0.2493 -0.5255
vn 0.4709 0.2102 0.8568
vn -0.3285 0.3819 0.8639
vn -0.3431 0.2065 0.9163
vn 0.2276 0.5294 0.8173
vn 0.5187 0.7619 0.3878
vn 0.7661 0.5100 0.3912
vn 0.6884 0.7023 -0.1816
vn -0.2354 0.7782 0.5823
vn 0.2757 0.5497 -0.7886
vn 0.1068 0.9278 -0.3575
vn -0.0851 0.9835 0.1595
vn 0.3452 0.0178 -0.9384
vn 0.1919 -0.8681 -0.4578
vn 0.2075 -0.8394 -0.5023
vn 0.2884 -0.8427 -0.4547
vn 0.2959 -0.8577 -0.4204
vn 0.2357 -0.8833 -0.4053
vn 0.1730 -0.8982 -0.4042
vn 0.8624 -0.2242 0.4538
vn -0.8979 0.0956 -0.4297
vn -0.9390 -0.2725 -0.2098
vn -0.9451 -0.1718 0.2781
vn -0.7278 0.5038 0.4653
vn -0.9232 0.1728 0.3432
vn -0.6815 0.7298 -0.0543
vn -0.8598 0.4664 -0.2077
vn -0.4385 0.6721 -0.5967
vn -0.3448 -0.0308 0.9382
vn -0.8462 -0.2751 0.4564
vn -0.3266 -0.2684 0.9062
vn -0.2893 0.2197 -0.9317
vn -0.4873 -0.2129 -0.8469
vn 0.1154 -0.8473 -0.5184
vn 0.1253 -0.8863 -0.4459
vn 0.0881 -0.8633 -0.4970
vt 0.632974 0.093871
vt 0.503906 0.078254
vt 0.589173 0.008983
vt 0.847141 0.093877
vt 0.885773 0.008968
vt 0.885720 0.093859
vt 0.626054 0.160453
vt 0.503906 0.239480
vt 0.503906 0.160453
vt 0.594591 0.256260
vt 0.770068 0.239653
vt 0.796873 0.160477
vt 0.885662 0.160447
vt 0.613281 0.332031
vt 0.993469 0.093828
vt 0.993664 0.239677
vt 0.769856 0.332504
vt 0.875933 0.329876
vt 0.993594 0.008974
vt 0.907452 0.266859
vt 0.907452 0.328239
vt 0.935082 0.320217
vt 0.950649 0.259980
vt 0.927383 0.231785
vt 0.907452 0.220071
vt 0.722057 0.008970
vt 0.503906 0.332031
vt 0.991210 0.241313
vt 0.875817 0.330252
vt 0.503906 0.008989
s 1
usemtl Doom_MAT
f 402/423/425 391/424/426 399/425/427
f 409/426/428 401/427/429 404/428/430
f 403/429/431 391/424/426 402/423/425
f 394/430/432 392/431/433 403/429/431 405/432/434
f 405/432/434 403/429/431 406/433/435
f 408/434/436 407/435/437 406/433/435
f 395/436/438 405/432/434 406/433/435
f 393/437/439 396/438/440 407/435/437
f 395/436/438 406/433/435 397/439/441
f 406/433/435 396/440/440 397/439/441
f 403/429/431 408/434/436 406/433/435
f 409/426/428 404/428/430 407/435/437
f 393/437/439 404/428/430 390/441/442
f 398/442/443 390/443/444 401/444/445
f 398/442/443 401/444/445 400/445/446
f 399/446/447 398/442/443 400/445/446
f 399/446/447 389/447/448 398/442/443
f 399/425/427 400/448/449 402/423/425
f 407/435/437 396/440/440 406/433/435
f 394/430/432 405/432/434 395/449/438
f 393/437/439 407/435/437 404/428/430
f 403/429/431 409/426/428 408/434/436
f 409/426/428 407/435/437 408/434/436
f 420/426/450 411/448/451 413/423/452
f 394/430/432 416/432/453 414/429/454 392/431/433
f 416/432/453 417/433/455 414/429/454
f 419/434/456 417/433/455 418/435/457
f 395/436/438 417/433/455 416/432/453
f 393/437/439 418/435/457 396/450/440
f 395/436/438 397/439/441 417/433/455
f 417/433/455 397/439/441 396/451/440
f 414/429/454 417/433/455 419/434/456
f 413/423/452 414/429/454 420/426/450
f 414/429/454 391/424/426 392/431/458
f 391/424/426 410/425/459 389/452/460
f 420/426/450 418/435/457 415/428/461
f 415/428/461 390/441/442 412/427/462
f 398/442/443 412/444/463 390/443/444
f 410/446/464 411/445/465 398/442/443
f 410/446/464 398/442/443 389/447/448
f 410/425/459 413/423/452 411/448/451
f 418/435/457 417/433/455 396/451/440
f 394/430/432 395/449/438 416/432/453
f 398/442/443 411/445/465 412/444/463
f 393/437/439 415/428/461 418/435/457
f 420/426/450 419/434/456 418/435/457
f 403/429/431 392/431/458 391/424/426
f 414/429/454 413/423/452 391/424/426
f 399/425/427 391/424/426 389/452/460
f 413/423/452 410/425/459 391/424/426
f 400/448/449 401/427/429 409/426/428
f 412/427/462 420/426/450 415/428/461
f 411/448/451 420/426/450 412/427/462
f 400/448/449 409/426/428 402/423/425
f 420/426/450 414/429/454 419/434/456
f 402/423/425 409/426/428 403/429/431
f 393/437/439 390/441/442 415/428/461
f 390/441/442 404/428/430 401/427/429
